<svg width="16" height="15" viewBox="0 0 16 15" fill="none" xmlns="http://www.w3.org/2000/svg">
<path d="M16 7C16 10.866 12.418 14 8 14C7.20761 14.0018 6.41845 13.8989 5.653 13.694C5.069 13.99 3.728 14.558 1.472 14.928C1.272 14.96 1.12 14.752 1.199 14.566C1.553 13.73 1.873 12.616 1.969 11.6C0.744 10.37 0 8.76 0 7C0 3.134 3.582 0 8 0C12.418 0 16 3.134 16 7ZM4.5 4C4.36739 4 4.24021 4.05268 4.14645 4.14645C4.05268 4.24021 4 4.36739 4 4.5C4 4.63261 4.05268 4.75979 4.14645 4.85355C4.24021 4.94732 4.36739 5 4.5 5H11.5C11.6326 5 11.7598 4.94732 11.8536 4.85355C11.9473 4.75979 12 4.63261 12 4.5C12 4.36739 11.9473 4.24021 11.8536 4.14645C11.7598 4.05268 11.6326 4 11.5 4H4.5ZM4.5 6.5C4.36739 6.5 4.24021 6.55268 4.14645 6.64645C4.05268 6.74021 4 6.86739 4 7C4 7.13261 4.05268 7.25979 4.14645 7.35355C4.24021 7.44732 4.36739 7.5 4.5 7.5H11.5C11.6326 7.5 11.7598 7.44732 11.8536 7.35355C11.9473 7.25979 12 7.13261 12 7C12 6.86739 11.9473 6.74021 11.8536 6.64645C11.7598 6.55268 11.6326 6.5 11.5 6.5H4.5ZM4.5 9C4.36739 9 4.24021 9.05268 4.14645 9.14645C4.05268 9.24021 4 9.36739 4 9.5C4 9.63261 4.05268 9.75979 4.14645 9.85355C4.24021 9.94732 4.36739 10 4.5 10H8.5C8.63261 10 8.75979 9.94732 8.85355 9.85355C8.94732 9.75979 9 9.63261 9 9.5C9 9.36739 8.94732 9.24021 8.85355 9.14645C8.75979 9.05268 8.63261 9 8.5 9H4.5Z" fill="#0091FF"/>
</svg>
